G75*
%MOIN*%
%OFA0B0*%
%FSLAX24Y24*%
%IPPOS*%
%LPD*%
%AMOC8*
5,1,8,0,0,1.08239X$1,22.5*
%
%ADD10C,0.0000*%
%ADD11C,0.0060*%
%ADD12C,0.0080*%
%ADD13C,0.0040*%
D10*
X001661Y002241D02*
X001661Y041611D01*
X041032Y041611D01*
X041032Y002241D01*
X001661Y002241D01*
D11*
X002636Y012980D02*
X002636Y013300D01*
X002743Y013407D01*
X002957Y013407D01*
X003063Y013300D01*
X003063Y012980D01*
X003277Y012980D02*
X002636Y012980D01*
X002743Y013624D02*
X002636Y013731D01*
X002636Y013944D01*
X002743Y014051D01*
X002957Y014051D01*
X003063Y013944D01*
X003063Y013731D01*
X002957Y013624D01*
X002743Y013624D01*
X003063Y014269D02*
X003063Y014482D01*
X003170Y014375D02*
X002743Y014375D01*
X002636Y014482D01*
D12*
X024319Y008587D02*
X024319Y006894D01*
X024634Y006580D01*
X026012Y006580D02*
X026327Y006894D01*
X026327Y008587D01*
X026611Y008567D02*
X029192Y008567D01*
X029192Y007167D01*
X026611Y007167D01*
X026611Y008567D01*
D13*
X024053Y008450D02*
X023977Y008297D01*
X023823Y008143D01*
X023823Y008373D01*
X023746Y008450D01*
X023670Y008450D01*
X023593Y008373D01*
X023593Y008220D01*
X023670Y008143D01*
X023823Y008143D01*
X023670Y007990D02*
X023593Y007913D01*
X023593Y007759D01*
X023670Y007683D01*
X023977Y007683D01*
X024053Y007759D01*
X024053Y007913D01*
X023977Y007990D01*
X026376Y012718D02*
X026299Y012794D01*
X026299Y012948D01*
X026376Y013025D01*
X026453Y013025D01*
X026606Y012948D01*
X026606Y013178D01*
X026299Y013178D01*
X026376Y012718D02*
X026530Y012718D01*
X026606Y012794D01*
X026760Y012794D02*
X026836Y012718D01*
X026990Y012718D01*
X027067Y012794D01*
X027067Y013101D01*
X026990Y013178D01*
X026836Y013178D01*
X026760Y013101D01*
X023949Y013338D02*
X023949Y013568D01*
X023872Y013645D01*
X023719Y013645D01*
X023642Y013568D01*
X023642Y013338D01*
X023642Y013491D02*
X023489Y013645D01*
X023565Y013798D02*
X023489Y013875D01*
X023489Y014028D01*
X023565Y014105D01*
X023642Y014105D01*
X023719Y014028D01*
X023719Y013798D01*
X023565Y013798D01*
X023719Y013798D02*
X023872Y013952D01*
X023949Y014105D01*
X023949Y013338D02*
X023489Y013338D01*
X022061Y013227D02*
X021601Y013227D01*
X021831Y013227D02*
X021831Y013534D01*
X021831Y013688D02*
X021831Y013995D01*
X022061Y013918D02*
X021831Y013688D01*
X022061Y013534D02*
X021601Y013534D01*
X021601Y013918D02*
X022061Y013918D01*
X021601Y014148D02*
X022061Y014455D01*
X021908Y014609D02*
X022061Y014762D01*
X021601Y014762D01*
X021601Y014609D02*
X021601Y014916D01*
X021266Y014921D02*
X021266Y015228D01*
X021189Y015228D01*
X020882Y014921D01*
X020806Y014921D01*
X020806Y014767D02*
X020959Y014614D01*
X020959Y014690D02*
X020959Y014460D01*
X020806Y014460D02*
X021266Y014460D01*
X021266Y014690D01*
X021189Y014767D01*
X021036Y014767D01*
X020959Y014690D01*
X019235Y014669D02*
X019081Y014823D01*
X019235Y014976D01*
X018774Y014976D01*
X018774Y015130D02*
X019235Y015130D01*
X019235Y015360D01*
X019158Y015437D01*
X019005Y015437D01*
X018928Y015360D01*
X018928Y015130D01*
X018774Y015590D02*
X019081Y015897D01*
X019158Y015897D01*
X019235Y015820D01*
X019235Y015667D01*
X019158Y015590D01*
X018774Y015590D02*
X018774Y015897D01*
X018774Y014669D02*
X019235Y014669D01*
X019235Y014516D02*
X019235Y014362D01*
X019235Y014439D02*
X018851Y014439D01*
X018774Y014362D01*
X018774Y014286D01*
X018851Y014209D01*
X017524Y014383D02*
X017415Y014274D01*
X017307Y014274D01*
X017198Y014166D02*
X017253Y014111D01*
X017198Y014166D02*
X016764Y014166D01*
X016710Y014220D01*
X016927Y014437D01*
X017090Y014491D02*
X017090Y014600D01*
X017198Y014708D01*
X017307Y014708D01*
X017524Y014491D01*
X017524Y014383D01*
X015865Y013455D02*
X015865Y013347D01*
X015648Y013130D01*
X015539Y013130D01*
X015431Y013238D01*
X015431Y013347D01*
X015322Y013455D02*
X015377Y013510D01*
X015377Y013618D01*
X015268Y013727D01*
X015160Y013727D01*
X015105Y013672D01*
X015105Y013564D01*
X015214Y013455D01*
X015322Y013455D01*
X015377Y013618D02*
X015485Y013618D01*
X015539Y013672D01*
X015539Y013781D01*
X015431Y013889D01*
X015322Y013889D01*
X015268Y013835D01*
X015268Y013727D01*
X015648Y013564D02*
X015756Y013564D01*
X015865Y013455D01*
X014020Y012944D02*
X014020Y012836D01*
X013911Y012727D01*
X013803Y012727D01*
X013749Y012564D02*
X013532Y012347D01*
X013640Y012456D02*
X013315Y012781D01*
X013532Y012781D01*
X013586Y012944D02*
X013586Y013053D01*
X013694Y013161D01*
X013803Y013161D01*
X014020Y012944D01*
X012406Y014261D02*
X012297Y014152D01*
X012189Y014152D01*
X012134Y013989D02*
X011700Y013989D01*
X011646Y014044D01*
X011646Y014152D01*
X011755Y014261D01*
X011863Y014261D01*
X011972Y014369D02*
X011972Y014478D01*
X012080Y014586D01*
X012189Y014586D01*
X012406Y014369D01*
X012406Y014261D01*
X012134Y013989D02*
X011917Y013772D01*
X009933Y013812D02*
X009703Y013582D01*
X009703Y013889D01*
X009473Y013812D02*
X009933Y013812D01*
X009856Y013428D02*
X009703Y013428D01*
X009626Y013351D01*
X009626Y013121D01*
X009473Y013121D02*
X009933Y013121D01*
X009933Y013351D01*
X009856Y013428D01*
X009626Y013275D02*
X009473Y013428D01*
X008274Y014574D02*
X007813Y014574D01*
X007967Y014574D02*
X007967Y014805D01*
X008044Y014881D01*
X008197Y014881D01*
X008274Y014805D01*
X008274Y014574D01*
X007967Y014728D02*
X007813Y014881D01*
X007890Y015035D02*
X007813Y015112D01*
X007813Y015265D01*
X007890Y015342D01*
X008044Y015342D01*
X008120Y015265D01*
X008120Y015188D01*
X008044Y015035D01*
X008274Y015035D01*
X008274Y015342D01*
X006935Y013822D02*
X006935Y013361D01*
X006935Y013592D02*
X006628Y013592D01*
X006474Y013592D02*
X006321Y013668D01*
X006244Y013668D01*
X006167Y013592D01*
X006167Y013438D01*
X006244Y013361D01*
X006398Y013361D01*
X006474Y013438D01*
X006474Y013592D02*
X006474Y013822D01*
X006167Y013822D01*
X005707Y013822D02*
X006014Y013361D01*
X005554Y013361D02*
X005247Y013668D01*
X005247Y013745D01*
X005323Y013822D01*
X005477Y013822D01*
X005554Y013745D01*
X005554Y013361D02*
X005247Y013361D01*
X005779Y014271D02*
X005703Y014347D01*
X005703Y014424D01*
X005779Y014501D01*
X006163Y014501D01*
X006163Y014577D02*
X006163Y014424D01*
X006163Y014731D02*
X005703Y014731D01*
X005703Y015038D02*
X006163Y015038D01*
X006010Y014884D01*
X006163Y014731D01*
X006163Y015191D02*
X005703Y015191D01*
X005856Y015191D02*
X005856Y015422D01*
X005933Y015498D01*
X006086Y015498D01*
X006163Y015422D01*
X006163Y015191D01*
X006010Y015652D02*
X006163Y015805D01*
X005703Y015805D01*
X005703Y015652D02*
X005703Y015959D01*
X006628Y013822D02*
X006628Y013361D01*
X015564Y017752D02*
X015564Y017861D01*
X015673Y017969D01*
X015781Y017969D01*
X015564Y017752D02*
X015618Y017698D01*
X016052Y017698D01*
X015835Y017481D01*
X016161Y017806D02*
X016378Y018024D01*
X016270Y017915D02*
X015944Y018241D01*
X016161Y018241D01*
X016215Y018403D02*
X016215Y018512D01*
X016324Y018620D01*
X016432Y018620D01*
X016649Y018403D01*
X016649Y018295D01*
X016541Y018186D01*
X016432Y018186D01*
X019560Y027626D02*
X019483Y027703D01*
X019483Y027780D01*
X019560Y027856D01*
X019943Y027856D01*
X019943Y027780D02*
X019943Y027933D01*
X019943Y028087D02*
X019790Y028240D01*
X019943Y028394D01*
X019483Y028394D01*
X019483Y028547D02*
X019943Y028547D01*
X019943Y028777D01*
X019867Y028854D01*
X019713Y028854D01*
X019637Y028777D01*
X019637Y028547D01*
X019713Y029007D02*
X019713Y029314D01*
X019483Y029238D02*
X019943Y029238D01*
X019713Y029007D01*
X019483Y028087D02*
X019943Y028087D01*
X021617Y028267D02*
X022077Y028267D01*
X022077Y028497D01*
X022000Y028574D01*
X021847Y028574D01*
X021770Y028497D01*
X021770Y028267D01*
X021770Y028420D02*
X021617Y028574D01*
X021617Y028727D02*
X021617Y029034D01*
X021617Y028881D02*
X022077Y028881D01*
X021923Y028727D01*
X021923Y029188D02*
X022077Y029341D01*
X021617Y029341D01*
X021617Y029188D02*
X021617Y029495D01*
X022721Y029685D02*
X023181Y029685D01*
X023181Y029915D01*
X023105Y029992D01*
X022951Y029992D01*
X022874Y029915D01*
X022874Y029685D01*
X022874Y029838D02*
X022721Y029992D01*
X022721Y030145D02*
X022721Y030452D01*
X022721Y030299D02*
X023181Y030299D01*
X023028Y030145D01*
X023105Y030606D02*
X022798Y030606D01*
X023105Y030913D01*
X022798Y030913D01*
X022721Y030836D01*
X022721Y030682D01*
X022798Y030606D01*
X023105Y030606D02*
X023181Y030682D01*
X023181Y030836D01*
X023105Y030913D01*
X019927Y030617D02*
X019927Y030157D01*
X019620Y030157D02*
X019620Y030617D01*
X019773Y030464D01*
X019927Y030617D01*
X019467Y030387D02*
X019160Y030387D01*
X019236Y030617D02*
X019467Y030387D01*
X019236Y030157D02*
X019236Y030617D01*
X019006Y030157D02*
X018699Y030617D01*
X018546Y030464D02*
X018392Y030617D01*
X018392Y030157D01*
X018239Y030157D02*
X018546Y030157D01*
X020103Y037358D02*
X020026Y037435D01*
X020026Y037588D01*
X020103Y037665D01*
X020026Y037819D02*
X020026Y038125D01*
X020026Y037972D02*
X020486Y037972D01*
X020333Y037819D01*
X020410Y037665D02*
X020486Y037588D01*
X020486Y037435D01*
X020410Y037358D01*
X020103Y037358D01*
X020026Y038279D02*
X020026Y038586D01*
X020026Y038432D02*
X020486Y038432D01*
X020333Y038279D01*
X021044Y040346D02*
X021197Y040346D01*
X021274Y040422D01*
X020967Y040729D01*
X020967Y040422D01*
X021044Y040346D01*
X021274Y040422D02*
X021274Y040729D01*
X021197Y040806D01*
X021044Y040806D01*
X020967Y040729D01*
X021427Y040346D02*
X021734Y040346D01*
X021581Y040346D02*
X021581Y040806D01*
X021734Y040653D01*
X021888Y040729D02*
X021964Y040806D01*
X022118Y040806D01*
X022195Y040729D01*
X022195Y040422D01*
X022118Y040346D01*
X021964Y040346D01*
X021888Y040422D01*
X031465Y030538D02*
X031388Y030462D01*
X031695Y030155D01*
X031619Y030078D01*
X031465Y030078D01*
X031388Y030155D01*
X031388Y030462D01*
X031465Y030538D02*
X031619Y030538D01*
X031695Y030462D01*
X031695Y030155D01*
X031849Y030538D02*
X032156Y030078D01*
X032309Y030155D02*
X032386Y030078D01*
X032539Y030078D01*
X032616Y030155D01*
X032770Y030078D02*
X032770Y030538D01*
X032923Y030385D01*
X033077Y030538D01*
X033077Y030078D01*
X032616Y030462D02*
X032539Y030538D01*
X032386Y030538D01*
X032309Y030462D01*
X032309Y030385D01*
X032386Y030308D01*
X032309Y030231D01*
X032309Y030155D01*
X032386Y030308D02*
X032463Y030308D01*
X032631Y029425D02*
X032707Y029425D01*
X032784Y029348D01*
X032784Y029118D01*
X032631Y029118D01*
X032554Y029194D01*
X032554Y029348D01*
X032631Y029425D01*
X032938Y029271D02*
X032784Y029118D01*
X032784Y028964D02*
X032707Y028888D01*
X032707Y028657D01*
X032554Y028657D02*
X033014Y028657D01*
X033014Y028888D01*
X032938Y028964D01*
X032784Y028964D01*
X032938Y029271D02*
X033014Y029425D01*
X033014Y028504D02*
X032554Y028504D01*
X032554Y028197D02*
X033014Y028197D01*
X032861Y028350D01*
X033014Y028504D01*
X033014Y028043D02*
X033014Y027890D01*
X033014Y027967D02*
X032631Y027967D01*
X032554Y027890D01*
X032554Y027813D01*
X032631Y027737D01*
X034687Y028243D02*
X035148Y028243D01*
X035148Y028473D01*
X035071Y028550D01*
X034918Y028550D01*
X034841Y028473D01*
X034841Y028243D01*
X034841Y028397D02*
X034687Y028550D01*
X034687Y028704D02*
X034687Y029011D01*
X034687Y028857D02*
X035148Y028857D01*
X034994Y028704D01*
X034918Y029164D02*
X034994Y029317D01*
X034994Y029394D01*
X034918Y029471D01*
X034764Y029471D01*
X034687Y029394D01*
X034687Y029241D01*
X034764Y029164D01*
X034918Y029164D02*
X035148Y029164D01*
X035148Y029471D01*
X035792Y029685D02*
X036252Y029685D01*
X036252Y029915D01*
X036175Y029992D01*
X036022Y029992D01*
X035945Y029915D01*
X035945Y029685D01*
X035945Y029838D02*
X035792Y029992D01*
X035792Y030145D02*
X035792Y030452D01*
X035792Y030299D02*
X036252Y030299D01*
X036099Y030145D01*
X036022Y030606D02*
X036022Y030913D01*
X036252Y030836D02*
X036022Y030606D01*
X035792Y030836D02*
X036252Y030836D01*
X038183Y029422D02*
X038183Y029345D01*
X038260Y029269D01*
X038183Y029192D01*
X038183Y029115D01*
X038260Y029039D01*
X038413Y029039D01*
X038490Y029115D01*
X038644Y029039D02*
X038797Y029192D01*
X038720Y029192D02*
X038951Y029192D01*
X038951Y029039D02*
X038951Y029499D01*
X038720Y029499D01*
X038644Y029422D01*
X038644Y029269D01*
X038720Y029192D01*
X038490Y029422D02*
X038413Y029499D01*
X038260Y029499D01*
X038183Y029422D01*
X038260Y029269D02*
X038337Y029269D01*
X038299Y024578D02*
X038222Y024501D01*
X038222Y024347D01*
X038299Y024271D01*
X038529Y024271D01*
X038375Y024271D02*
X038222Y024117D01*
X038068Y024117D02*
X037761Y024424D01*
X037761Y024501D01*
X037838Y024578D01*
X037992Y024578D01*
X038068Y024501D01*
X038299Y024578D02*
X038529Y024578D01*
X038529Y024117D01*
X038068Y024117D02*
X037761Y024117D01*
X031923Y020601D02*
X031923Y020141D01*
X031923Y020294D02*
X031692Y020294D01*
X031616Y020371D01*
X031616Y020525D01*
X031692Y020601D01*
X031923Y020601D01*
X031769Y020294D02*
X031616Y020141D01*
X031462Y020141D02*
X031155Y020141D01*
X031309Y020141D02*
X031309Y020601D01*
X031462Y020448D01*
X032079Y015905D02*
X032003Y015828D01*
X032003Y015675D01*
X032079Y015598D01*
X032233Y015598D02*
X032310Y015751D01*
X032310Y015828D01*
X032233Y015905D01*
X032079Y015905D01*
X032233Y015598D02*
X032463Y015598D01*
X032463Y015905D01*
X032386Y015445D02*
X032233Y015445D01*
X032156Y015368D01*
X032156Y015138D01*
X032003Y015138D02*
X032463Y015138D01*
X032463Y015368D01*
X032386Y015445D01*
X032463Y014984D02*
X032003Y014984D01*
X032003Y014677D02*
X032463Y014677D01*
X032310Y014831D01*
X032463Y014984D01*
X032463Y014524D02*
X032463Y014370D01*
X032463Y014447D02*
X032079Y014447D01*
X032003Y014370D01*
X032003Y014294D01*
X032079Y014217D01*
X031844Y013523D02*
X032151Y013062D01*
X032304Y013139D02*
X032381Y013062D01*
X032535Y013062D01*
X032611Y013139D01*
X032765Y013062D02*
X032765Y013523D01*
X032611Y013446D02*
X032535Y013523D01*
X032381Y013523D01*
X032304Y013446D01*
X032304Y013369D01*
X032381Y013292D01*
X032304Y013216D01*
X032304Y013139D01*
X032381Y013292D02*
X032458Y013292D01*
X032765Y013292D02*
X033072Y013292D01*
X033072Y013062D02*
X033072Y013523D01*
X034120Y014315D02*
X034581Y014315D01*
X034581Y014545D01*
X034504Y014622D01*
X034351Y014622D01*
X034274Y014545D01*
X034274Y014315D01*
X034274Y014468D02*
X034120Y014622D01*
X034120Y014775D02*
X034120Y015082D01*
X034120Y014929D02*
X034581Y014929D01*
X034427Y014775D01*
X034504Y015236D02*
X034581Y015312D01*
X034581Y015466D01*
X034504Y015543D01*
X034427Y015543D01*
X034351Y015466D01*
X034274Y015543D01*
X034197Y015543D01*
X034120Y015466D01*
X034120Y015312D01*
X034197Y015236D01*
X034351Y015389D02*
X034351Y015466D01*
X035654Y014349D02*
X035654Y014042D01*
X035961Y014349D01*
X036038Y014349D01*
X036114Y014272D01*
X036114Y014119D01*
X036038Y014042D01*
X036114Y013735D02*
X035654Y013735D01*
X035654Y013582D02*
X035654Y013889D01*
X035961Y013582D02*
X036114Y013735D01*
X036038Y013428D02*
X035884Y013428D01*
X035807Y013351D01*
X035807Y013121D01*
X035654Y013121D02*
X036114Y013121D01*
X036114Y013351D01*
X036038Y013428D01*
X035807Y013275D02*
X035654Y013428D01*
X031690Y013446D02*
X031614Y013523D01*
X031460Y013523D01*
X031384Y013446D01*
X031690Y013139D01*
X031614Y013062D01*
X031460Y013062D01*
X031384Y013139D01*
X031384Y013446D01*
X031690Y013446D02*
X031690Y013139D01*
X029856Y008245D02*
X029933Y008169D01*
X029933Y008015D01*
X029856Y007938D01*
X029856Y007785D02*
X029933Y007708D01*
X029933Y007555D01*
X029856Y007478D01*
X029549Y007478D01*
X029473Y007555D01*
X029473Y007708D01*
X029549Y007785D01*
X029473Y007938D02*
X029779Y008245D01*
X029856Y008245D01*
X029473Y008245D02*
X029473Y007938D01*
X029473Y007324D02*
X029473Y007171D01*
X029473Y007248D02*
X029933Y007248D01*
X029933Y007324D02*
X029933Y007171D01*
X008778Y028704D02*
X008778Y028934D01*
X008701Y029011D01*
X008548Y029011D01*
X008471Y028934D01*
X008471Y028704D01*
X008471Y028857D02*
X008317Y029011D01*
X008394Y029164D02*
X008317Y029241D01*
X008317Y029394D01*
X008394Y029471D01*
X008701Y029471D01*
X008778Y029394D01*
X008778Y029241D01*
X008701Y029164D01*
X008624Y029164D01*
X008548Y029241D01*
X008548Y029471D01*
X008778Y028704D02*
X008317Y028704D01*
X009493Y029968D02*
X009953Y029968D01*
X009953Y030198D01*
X009876Y030275D01*
X009723Y030275D01*
X009646Y030198D01*
X009646Y029968D01*
X009646Y030122D02*
X009493Y030275D01*
X009569Y030429D02*
X009646Y030429D01*
X009723Y030505D01*
X009723Y030659D01*
X009646Y030735D01*
X009569Y030735D01*
X009493Y030659D01*
X009493Y030505D01*
X009569Y030429D01*
X009723Y030505D02*
X009799Y030429D01*
X009876Y030429D01*
X009953Y030505D01*
X009953Y030659D01*
X009876Y030735D01*
X009799Y030735D01*
X009723Y030659D01*
X006895Y030656D02*
X006895Y030196D01*
X006589Y030196D02*
X006589Y030656D01*
X006742Y030503D01*
X006895Y030656D01*
X006435Y030656D02*
X006435Y030426D01*
X006282Y030503D01*
X006205Y030503D01*
X006128Y030426D01*
X006128Y030273D01*
X006205Y030196D01*
X006358Y030196D01*
X006435Y030273D01*
X006435Y030656D02*
X006128Y030656D01*
X005668Y030656D02*
X005975Y030196D01*
X005514Y030196D02*
X005207Y030503D01*
X005207Y030580D01*
X005284Y030656D01*
X005438Y030656D01*
X005514Y030580D01*
X005514Y030196D02*
X005207Y030196D01*
X006373Y029301D02*
X006373Y029147D01*
X006450Y029070D01*
X006603Y028917D02*
X006526Y028840D01*
X006526Y028610D01*
X006373Y028610D02*
X006833Y028610D01*
X006833Y028840D01*
X006756Y028917D01*
X006603Y028917D01*
X006756Y029070D02*
X006833Y029147D01*
X006833Y029301D01*
X006756Y029377D01*
X006680Y029377D01*
X006603Y029301D01*
X006526Y029377D01*
X006450Y029377D01*
X006373Y029301D01*
X006603Y029301D02*
X006603Y029224D01*
X006833Y028457D02*
X006373Y028457D01*
X006373Y028150D02*
X006833Y028150D01*
X006680Y028303D01*
X006833Y028457D01*
X006833Y027996D02*
X006833Y027843D01*
X006833Y027919D02*
X006450Y027919D01*
X006373Y027843D01*
X006373Y027766D01*
X006450Y027689D01*
M02*
