G75*
%MOIN*%
%OFA0B0*%
%FSLAX24Y24*%
%IPPOS*%
%LPD*%
%AMOC8*
5,1,8,0,0,1.08239X$1,22.5*
%
%ADD10C,0.0000*%
%ADD11R,0.0591X0.0787*%
%ADD12R,0.1496X0.0787*%
%ADD13R,0.0433X0.0394*%
%ADD14R,0.0512X0.0591*%
%ADD15R,0.0630X0.1181*%
%ADD16R,0.0394X0.0433*%
%ADD17R,0.0394X0.0551*%
%ADD18R,0.0591X0.0512*%
%ADD19C,0.0300*%
%ADD20C,0.0150*%
D10*
X001661Y002241D02*
X001661Y041611D01*
X041032Y041611D01*
X041032Y002241D01*
X001661Y002241D01*
D11*
X026996Y006627D03*
X027902Y006627D03*
X028807Y006627D03*
D12*
X027902Y009107D03*
D13*
X033591Y014501D03*
X033591Y015170D03*
X038953Y023249D03*
X038953Y023918D03*
X034299Y028532D03*
X034299Y029202D03*
X021827Y039918D03*
X021158Y039918D03*
X021228Y029186D03*
X021228Y028517D03*
G36*
X015930Y018329D02*
X015625Y018024D01*
X015346Y018303D01*
X015651Y018608D01*
X015930Y018329D01*
G37*
G36*
X015457Y017856D02*
X015152Y017551D01*
X014873Y017830D01*
X015178Y018135D01*
X015457Y017856D01*
G37*
G36*
X015426Y013997D02*
X015121Y014302D01*
X015400Y014581D01*
X015705Y014276D01*
X015426Y013997D01*
G37*
G36*
X015899Y013523D02*
X015594Y013828D01*
X015873Y014107D01*
X016178Y013802D01*
X015899Y013523D01*
G37*
G36*
X017078Y013834D02*
X017383Y014139D01*
X017662Y013860D01*
X017357Y013555D01*
X017078Y013834D01*
G37*
G36*
X017551Y014307D02*
X017856Y014612D01*
X018135Y014333D01*
X017830Y014028D01*
X017551Y014307D01*
G37*
X020354Y014461D03*
X020354Y015131D03*
G36*
X013142Y013469D02*
X013447Y013774D01*
X013726Y013495D01*
X013421Y013190D01*
X013142Y013469D01*
G37*
G36*
X012668Y012995D02*
X012973Y013300D01*
X013252Y013021D01*
X012947Y012716D01*
X012668Y012995D01*
G37*
G36*
X011960Y013712D02*
X012265Y014017D01*
X012544Y013738D01*
X012239Y013433D01*
X011960Y013712D01*
G37*
G36*
X012433Y014185D02*
X012738Y014490D01*
X013017Y014211D01*
X012712Y013906D01*
X012433Y014185D01*
G37*
X007362Y014576D03*
X007362Y015245D03*
X008047Y028599D03*
X008047Y029269D03*
D14*
X026213Y012198D03*
X026961Y012198D03*
D15*
X025323Y008450D03*
X025323Y006717D03*
D16*
X032315Y020320D03*
X032984Y020320D03*
X038386Y028769D03*
X039055Y028769D03*
X020362Y039536D03*
X020362Y040206D03*
D17*
X020850Y030765D03*
X020476Y029898D03*
X021224Y029898D03*
X033547Y029938D03*
X034295Y029938D03*
X033921Y030804D03*
X033555Y013780D03*
X034303Y013780D03*
X033929Y012914D03*
X021114Y013780D03*
X020366Y013780D03*
X020740Y012914D03*
X008083Y013938D03*
X007335Y013938D03*
X007709Y013072D03*
X008075Y029977D03*
X007327Y029977D03*
X007701Y030843D03*
D18*
X009016Y030717D03*
X009016Y029969D03*
X022126Y029910D03*
X022126Y030658D03*
X035197Y030619D03*
X035197Y029871D03*
X035134Y013725D03*
X035134Y012977D03*
X022969Y013194D03*
X022969Y013942D03*
X008953Y013725D03*
X008953Y012977D03*
D19*
X006716Y014864D02*
X006702Y014864D01*
X006716Y015602D02*
X006702Y015602D01*
X007304Y028210D02*
X007318Y028210D01*
X007304Y028949D02*
X007318Y028949D01*
X020469Y028870D02*
X020483Y028870D01*
X020469Y028131D02*
X020483Y028131D01*
X019704Y015484D02*
X019690Y015484D01*
X019690Y014746D02*
X019704Y014746D01*
X032926Y014785D02*
X032940Y014785D01*
X032926Y015524D02*
X032940Y015524D01*
X033611Y028171D02*
X033625Y028171D01*
X033611Y028909D02*
X033625Y028909D01*
D20*
X033708Y028465D02*
X033528Y028465D01*
X033528Y028615D01*
X033708Y028615D01*
X033708Y028465D01*
X033708Y028614D02*
X033528Y028614D01*
X020566Y028426D02*
X020386Y028426D01*
X020386Y028576D01*
X020566Y028576D01*
X020566Y028426D01*
X020566Y028575D02*
X020386Y028575D01*
X007401Y028505D02*
X007221Y028505D01*
X007221Y028655D01*
X007401Y028655D01*
X007401Y028505D01*
X007401Y028654D02*
X007221Y028654D01*
X006799Y015308D02*
X006619Y015308D01*
X006799Y015308D02*
X006799Y015158D01*
X006619Y015158D01*
X006619Y015308D01*
X006619Y015307D02*
X006799Y015307D01*
X019607Y015040D02*
X019787Y015040D01*
X019607Y015040D02*
X019607Y015190D01*
X019787Y015190D01*
X019787Y015040D01*
X019787Y015189D02*
X019607Y015189D01*
X032843Y015079D02*
X033023Y015079D01*
X032843Y015079D02*
X032843Y015229D01*
X033023Y015229D01*
X033023Y015079D01*
X033023Y015228D02*
X032843Y015228D01*
M02*
