G75*
%MOIN*%
%OFA0B0*%
%FSLAX24Y24*%
%IPPOS*%
%LPD*%
%AMOC8*
5,1,8,0,0,1.08239X$1,22.5*
%
%ADD10C,0.0000*%
%ADD11R,0.0591X0.0197*%
%ADD12R,0.0197X0.0591*%
%ADD13R,0.2100X0.0760*%
%ADD14R,0.0433X0.0394*%
%ADD15R,0.0157X0.0591*%
D10*
X001661Y002241D02*
X001661Y041611D01*
X041032Y041611D01*
X041032Y002241D01*
X001661Y002241D01*
D11*
G36*
X014301Y014882D02*
X014717Y015298D01*
X014855Y015160D01*
X014439Y014744D01*
X014301Y014882D01*
G37*
G36*
X014078Y015104D02*
X014494Y015520D01*
X014632Y015382D01*
X014216Y014966D01*
X014078Y015104D01*
G37*
G36*
X013855Y015327D02*
X014271Y015743D01*
X014409Y015605D01*
X013993Y015189D01*
X013855Y015327D01*
G37*
G36*
X013633Y015550D02*
X014049Y015966D01*
X014187Y015828D01*
X013771Y015412D01*
X013633Y015550D01*
G37*
G36*
X014524Y014659D02*
X014940Y015075D01*
X015078Y014937D01*
X014662Y014521D01*
X014524Y014659D01*
G37*
G36*
X014746Y014436D02*
X015162Y014852D01*
X015300Y014714D01*
X014884Y014298D01*
X014746Y014436D01*
G37*
G36*
X014969Y014213D02*
X015385Y014629D01*
X015523Y014491D01*
X015107Y014075D01*
X014969Y014213D01*
G37*
G36*
X015192Y013991D02*
X015608Y014407D01*
X015746Y014269D01*
X015330Y013853D01*
X015192Y013991D01*
G37*
G36*
X015414Y013768D02*
X015830Y014184D01*
X015968Y014046D01*
X015552Y013630D01*
X015414Y013768D01*
G37*
G36*
X015637Y013545D02*
X016053Y013961D01*
X016191Y013823D01*
X015775Y013407D01*
X015637Y013545D01*
G37*
G36*
X015860Y013323D02*
X016276Y013739D01*
X016414Y013601D01*
X015998Y013185D01*
X015860Y013323D01*
G37*
G36*
X019089Y016552D02*
X019505Y016968D01*
X019643Y016830D01*
X019227Y016414D01*
X019089Y016552D01*
G37*
G36*
X018866Y016775D02*
X019282Y017191D01*
X019420Y017053D01*
X019004Y016637D01*
X018866Y016775D01*
G37*
G36*
X018644Y016997D02*
X019060Y017413D01*
X019198Y017275D01*
X018782Y016859D01*
X018644Y016997D01*
G37*
G36*
X018421Y017220D02*
X018837Y017636D01*
X018975Y017498D01*
X018559Y017082D01*
X018421Y017220D01*
G37*
G36*
X018198Y017443D02*
X018614Y017859D01*
X018752Y017721D01*
X018336Y017305D01*
X018198Y017443D01*
G37*
G36*
X017976Y017665D02*
X018392Y018081D01*
X018530Y017943D01*
X018114Y017527D01*
X017976Y017665D01*
G37*
G36*
X017753Y017888D02*
X018169Y018304D01*
X018307Y018166D01*
X017891Y017750D01*
X017753Y017888D01*
G37*
G36*
X017530Y018111D02*
X017946Y018527D01*
X018084Y018389D01*
X017668Y017973D01*
X017530Y018111D01*
G37*
G36*
X017307Y018334D02*
X017723Y018750D01*
X017861Y018612D01*
X017445Y018196D01*
X017307Y018334D01*
G37*
G36*
X017085Y018556D02*
X017501Y018972D01*
X017639Y018834D01*
X017223Y018418D01*
X017085Y018556D01*
G37*
G36*
X016862Y018779D02*
X017278Y019195D01*
X017416Y019057D01*
X017000Y018641D01*
X016862Y018779D01*
G37*
D12*
G36*
X015860Y019057D02*
X015998Y019195D01*
X016414Y018779D01*
X016276Y018641D01*
X015860Y019057D01*
G37*
G36*
X015637Y018834D02*
X015775Y018972D01*
X016191Y018556D01*
X016053Y018418D01*
X015637Y018834D01*
G37*
G36*
X015414Y018612D02*
X015552Y018750D01*
X015968Y018334D01*
X015830Y018196D01*
X015414Y018612D01*
G37*
G36*
X015192Y018389D02*
X015330Y018527D01*
X015746Y018111D01*
X015608Y017973D01*
X015192Y018389D01*
G37*
G36*
X014969Y018166D02*
X015107Y018304D01*
X015523Y017888D01*
X015385Y017750D01*
X014969Y018166D01*
G37*
G36*
X014746Y017943D02*
X014884Y018081D01*
X015300Y017665D01*
X015162Y017527D01*
X014746Y017943D01*
G37*
G36*
X014524Y017721D02*
X014662Y017859D01*
X015078Y017443D01*
X014940Y017305D01*
X014524Y017721D01*
G37*
G36*
X014301Y017498D02*
X014439Y017636D01*
X014855Y017220D01*
X014717Y017082D01*
X014301Y017498D01*
G37*
G36*
X014078Y017275D02*
X014216Y017413D01*
X014632Y016997D01*
X014494Y016859D01*
X014078Y017275D01*
G37*
G36*
X013855Y017053D02*
X013993Y017191D01*
X014409Y016775D01*
X014271Y016637D01*
X013855Y017053D01*
G37*
G36*
X013633Y016830D02*
X013771Y016968D01*
X014187Y016552D01*
X014049Y016414D01*
X013633Y016830D01*
G37*
G36*
X016862Y013601D02*
X017000Y013739D01*
X017416Y013323D01*
X017278Y013185D01*
X016862Y013601D01*
G37*
G36*
X017085Y013823D02*
X017223Y013961D01*
X017639Y013545D01*
X017501Y013407D01*
X017085Y013823D01*
G37*
G36*
X017307Y014046D02*
X017445Y014184D01*
X017861Y013768D01*
X017723Y013630D01*
X017307Y014046D01*
G37*
G36*
X017530Y014269D02*
X017668Y014407D01*
X018084Y013991D01*
X017946Y013853D01*
X017530Y014269D01*
G37*
G36*
X017753Y014491D02*
X017891Y014629D01*
X018307Y014213D01*
X018169Y014075D01*
X017753Y014491D01*
G37*
G36*
X017976Y014714D02*
X018114Y014852D01*
X018530Y014436D01*
X018392Y014298D01*
X017976Y014714D01*
G37*
G36*
X018198Y014937D02*
X018336Y015075D01*
X018752Y014659D01*
X018614Y014521D01*
X018198Y014937D01*
G37*
G36*
X018421Y015160D02*
X018559Y015298D01*
X018975Y014882D01*
X018837Y014744D01*
X018421Y015160D01*
G37*
G36*
X018644Y015382D02*
X018782Y015520D01*
X019198Y015104D01*
X019060Y014966D01*
X018644Y015382D01*
G37*
G36*
X018866Y015605D02*
X019004Y015743D01*
X019420Y015327D01*
X019282Y015189D01*
X018866Y015605D01*
G37*
G36*
X019089Y015828D02*
X019227Y015966D01*
X019643Y015550D01*
X019505Y015412D01*
X019089Y015828D01*
G37*
D13*
G36*
X021241Y020247D02*
X022725Y018763D01*
X022187Y018225D01*
X020703Y019709D01*
X021241Y020247D01*
G37*
G36*
X018554Y022934D02*
X020038Y021450D01*
X019500Y020912D01*
X018016Y022396D01*
X018554Y022934D01*
G37*
D14*
G36*
X020178Y022851D02*
X019873Y023156D01*
X020152Y023435D01*
X020457Y023130D01*
X020178Y022851D01*
G37*
G36*
X020651Y022378D02*
X020346Y022683D01*
X020625Y022962D01*
X020930Y022657D01*
X020651Y022378D01*
G37*
G36*
X022422Y020654D02*
X022117Y020959D01*
X022396Y021238D01*
X022701Y020933D01*
X022422Y020654D01*
G37*
G36*
X022895Y020181D02*
X022590Y020486D01*
X022869Y020765D01*
X023174Y020460D01*
X022895Y020181D01*
G37*
X003343Y017359D03*
X002673Y017359D03*
D15*
X020435Y038137D03*
X020691Y038137D03*
X020947Y038137D03*
X021203Y038137D03*
X021459Y038137D03*
X021715Y038137D03*
X021971Y038137D03*
X022226Y038137D03*
X022482Y038137D03*
X022738Y038137D03*
X022994Y038137D03*
X023250Y038137D03*
X023506Y038137D03*
X023762Y038137D03*
X023762Y040991D03*
X023506Y040991D03*
X023250Y040991D03*
X022994Y040991D03*
X022738Y040991D03*
X022482Y040991D03*
X022226Y040991D03*
X021971Y040991D03*
X021715Y040991D03*
X021459Y040991D03*
X021203Y040991D03*
X020947Y040991D03*
X020691Y040991D03*
X020435Y040991D03*
M02*
