%
M48
M72
T01C0.0236
T02C0.0320
T03C0.0360
T04C0.0374
T05C0.0394
T06C0.0400
T07C0.0906
%
T01
X5244Y5072
X4654Y8072
X10717Y13107
X9850Y16808
X12055Y18501
X14654Y18855
X15612Y17215
X16228Y17044
X17055Y17044
X18158Y16532
X17370Y14879
X16583Y14091
X15953Y14879
X16386Y15745
X15284Y15706
X14457Y14209
X14496Y13658
X14929Y13146
X15559Y12753
X16228Y12595
X17095Y12595
X17803Y12753
X18315Y13146
X18827Y13540
X21898Y13776
X26071Y17438
X26819Y17005
X27528Y16532
X28354Y16139
X29024Y15824
X29890Y15509
X34378Y14682
X32272Y6591
X31780Y3816
X22626Y7812
X18315Y4072
X17803Y5072
X17095Y6072
X16228Y7072
X15559Y8072
X14969Y9072
X14457Y10072
X18827Y3072
X19929Y18855
X18197Y19643
X17449Y19761
X19693Y24957
X15756Y32438
X16583Y32989
X18787Y34957
X19614Y32989
X21032Y37438
X20362Y39013
X21780Y39091
X22646Y40194
X24299Y40154
X25717Y38776
X23748Y36965
X24496Y36335
X25638Y35627
X26268Y34957
X27469Y34426
X28669Y34446
X31543Y36780
X33000Y33780
X32803Y30745
X32921Y25548
X17488Y39603
X6071Y35780
X5362Y38780
X7055Y23501
X4142Y18973
X2882Y18028
X3354Y16572
T02
X3630Y3072
X3630Y4072
X3630Y5072
X3630Y6072
X3630Y7072
X3630Y8072
X3630Y9072
X3630Y10072
X7717Y12044
X8717Y12044
X13166Y14646
X13873Y13939
X20807Y12044
X21807Y12044
X33937Y12044
X34937Y12044
X34937Y31729
X33937Y31729
X21807Y31729
X20807Y31729
X8717Y31729
X7717Y31729
X3630Y33780
X3630Y34780
X3630Y35780
X3630Y36780
X3630Y37780
X3630Y38780
X3630Y39780
X3630Y40780
T03
X3630Y32583
X3630Y31583
X3630Y30355
X3630Y29355
X3630Y28355
X3630Y27355
X3130Y23926
X4130Y23926
X4130Y22926
X3130Y22926
X3130Y21926
X4130Y21926
X4130Y20926
X3130Y20926
X3130Y19926
X4130Y19926
X39102Y31505
X39102Y32505
T04
X17197Y37776
X17197Y38564
X16213Y38564
X16213Y37776
T05
X26984Y5520
X28874Y4300
X26984Y3119
T06
X39063Y3072
X39063Y4072
X39063Y5072
X39063Y6072
X39063Y7072
X39063Y8072
X39063Y9072
X39063Y10072
X32894Y19091
X31114Y19091
X31114Y21651
X32894Y21651
X37657Y23465
X37657Y25245
X37645Y26197
X37645Y27977
X40205Y27977
X40205Y26197
X40217Y25245
X40217Y23465
X39063Y33780
X39063Y34780
X39063Y35780
X39063Y36780
X39063Y37780
X39063Y38780
X39063Y39780
X39063Y40780
T07
X19075Y39631
X14335Y39631
M30
